<?xml version="1.0" encoding="UTF-8" standalone="no"?>
<svg
   xmlns:dc="http://purl.org/dc/elements/1.1/"
   xmlns:cc="http://creativecommons.org/ns#"
   xmlns:rdf="http://www.w3.org/1999/02/22-rdf-syntax-ns#"
   xmlns:svg="http://www.w3.org/2000/svg"
   xmlns="http://www.w3.org/2000/svg"
   xmlns:sodipodi="http://sodipodi.sourceforge.net/DTD/sodipodi-0.dtd"
   xmlns:inkscape="http://www.inkscape.org/namespaces/inkscape"
   inkscape:export-ydpi="96"
   inkscape:export-xdpi="96"
   inkscape:export-filename="C:\Users\guilh\Desktop\logo2.png"
   sodipodi:docname="logo.svg"
   inkscape:version="0.92.3 (2405546, 2018-03-11)"
   id="svg8"
   version="1.1"
   viewBox="0 0 176.74211 84.797028"
   height="84.797028mm"
   width="176.74211mm">
  <defs
     id="defs2" />
  <sodipodi:namedview
     showguides="false"
     inkscape:window-maximized="1"
     inkscape:window-y="27"
     inkscape:window-x="67"
     inkscape:window-height="713"
     inkscape:window-width="1299"
     showgrid="false"
     inkscape:document-rotation="0"
     inkscape:current-layer="layer1"
     inkscape:document-units="mm"
     inkscape:cy="-68.336053"
     inkscape:cx="858.91806"
     inkscape:zoom="0.35"
     inkscape:pageshadow="2"
     inkscape:pageopacity="0.0"
     borderopacity="1.0"
     bordercolor="#666666"
     pagecolor="#ffffff"
     id="base" />
  <metadata
     id="metadata5">
    <rdf:RDF>
      <cc:Work
         rdf:about="">
        <dc:format>image/svg+xml</dc:format>
        <dc:type
           rdf:resource="http://purl.org/dc/dcmitype/StillImage" />
        <dc:title />
      </cc:Work>
    </rdf:RDF>
  </metadata>
  <g
     id="layer1"
     inkscape:groupmode="layer"
     inkscape:label="Layer 1"
     transform="translate(-15.382412,-42.964645)">
    <path
       inkscape:export-ydpi="96"
       inkscape:export-xdpi="96"
       sodipodi:nodetypes="cc"
       id="path56"
       d="m 38.185608,43.046129 c -60.669432,77.596281 19.6442,67.955921 24.85606,40.624967"
       style="fill:none;stroke:#000000;stroke-width:0.26458299px;stroke-linecap:butt;stroke-linejoin:miter;stroke-opacity:1"
       inkscape:connector-curvature="0" />
    <path
       inkscape:export-ydpi="96"
       inkscape:export-xdpi="96"
       style="fill:none;stroke:#000000;stroke-width:0.185376px;stroke-linecap:butt;stroke-linejoin:miter;stroke-opacity:1"
       d="M 38.185608,43.046129 C -1.9904619,108.1862 55.285318,107.76933 63.041668,83.671096"
       id="path56-9"
       sodipodi:nodetypes="cc"
       inkscape:connector-curvature="0" />
    <path
       inkscape:export-ydpi="96"
       inkscape:export-xdpi="96"
       id="path73"
       d="m 28.235968,103.82245 c -3.67323,-0.56568 -6.41721,-1.83921 -8.78716,-4.078279 -7.524928,-7.10939 -4.538647,-21.981078 8.39796,-41.821872 2.59319,-3.977146 5.7275,-8.398989 5.85971,-8.266777 0.0564,0.0564 -0.5595,1.357873 -1.36868,2.89216 -8.15723,15.467034 -10.86259,27.919884 -7.92011,36.456594 1.67953,4.872655 4.77783,7.920265 9.83272,9.671875 1.90498,0.6601 2.47042,0.731 5.85057,0.7335 2.6529,0.002 4.27554,-0.13071 5.57599,-0.45592 4.28408,-1.07136 8.47636,-3.27161 11.41176,-5.98927 2.40123,-2.223114 1.90125,-1.27706 -0.61749,1.1684 -4.66197,4.52634 -10.68772,7.644179 -17.72176,9.169579 -3.05973,0.66354 -7.99609,0.9077 -10.51351,0.52001 z"
       style="fill:#d45500;stroke-width:0.26726899"
       inkscape:connector-curvature="0" />
    <path
       transform="scale(0.26458333)"
       id="path75"
       d=""
       style="fill:#d45500;stroke-width:1.01014996"
       inkscape:connector-curvature="0" />
    <path
       transform="scale(0.26458333)"
       id="path77"
       d=""
       style="fill:#d45500;stroke-width:1.01014996"
       inkscape:connector-curvature="0" />
    <path
       inkscape:export-ydpi="96"
       inkscape:export-xdpi="96"
       style="fill:none;stroke:#000000;stroke-width:0.26458299px;stroke-linecap:butt;stroke-linejoin:miter;stroke-opacity:1"
       d="M 60.678798,124.36417 C 121.34823,46.767894 41.034598,56.408254 35.822738,83.739214"
       id="path56-3"
       sodipodi:nodetypes="cc"
       inkscape:connector-curvature="0" />
    <path
       inkscape:export-ydpi="96"
       inkscape:export-xdpi="96"
       sodipodi:nodetypes="cc"
       id="path56-9-3"
       d="M 60.678798,124.36418 C 100.85487,59.224104 43.579088,59.640974 35.822738,83.739214"
       style="fill:none;stroke:#000000;stroke-width:0.185376px;stroke-linecap:butt;stroke-linejoin:miter;stroke-opacity:1"
       inkscape:connector-curvature="0" />
    <path
       sodipodi:nodetypes="ssssssscsssss"
       inkscape:export-ydpi="96"
       inkscape:export-xdpi="96"
       style="fill:#ff7f2a;stroke-width:0.26726899"
       d="m 69.152833,65.205133 c 3.67322,0.56567 6.41721,1.83921 8.78715,4.07828 7.52494,7.10938 4.53865,21.981078 -8.39796,41.821867 -2.59318,3.97715 -5.7275,8.39899 -5.85971,8.26678 -0.0564,-0.0564 0.55951,-1.35788 1.36868,-2.89216 8.15724,-15.46704 10.8626,-27.91989 7.92012,-36.456597 -1.67954,-4.87265 -4.77783,-7.92027 -9.83272,-9.67187 -1.90499,-0.66011 -2.47043,-0.731 -5.85057,-0.73351 -2.6529,-0.002 -4.27554,0.13071 -5.57599,0.45593 -4.28409,1.07136 -8.28515,3.151191 -11.081031,6.012188 -2.495724,2.553849 -2.184732,1.632118 0.286761,-1.191318 4.27981,-4.889259 10.68772,-7.64418 17.72175,-9.16959 3.05973,-0.66353 7.99609,-0.90769 10.51352,-0.52 z"
       id="path73-9"
       inkscape:connector-curvature="0" />
    <text
       id="text114"
       y="93.322945"
       x="100.95137"
       style="font-style:normal;font-variant:normal;font-weight:normal;font-stretch:normal;font-size:17.979105px;line-height:0;font-family:Broadway;-inkscape-font-specification:Broadway;letter-spacing:2.24740076px;fill:#1c241f;fill-opacity:1;stroke:none;stroke-width:0.44947845"
       xml:space="preserve"
       transform="scale(0.85845431,1.1648844)"><tspan
         rotate="0 0 0 0 0 0 0 0 0 0 0"
         style="font-style:normal;font-variant:normal;font-weight:normal;font-stretch:normal;line-height:1.35000002;font-family:Broadway;-inkscape-font-specification:Broadway;word-spacing:0.00449479px;baseline-shift:baseline;fill:#1c241f;stroke-width:0.44947845"
         y="93.322945"
         x="100.95137"
         id="tspan112"
         sodipodi:role="line">CredCenter</tspan></text>
  </g>
</svg>
